<?xml version="1.0" encoding="iso-8859-1"?>
<!-- Generator: Adobe Illustrator 19.0.0, SVG Export Plug-In . SVG Version: 6.00 Build 0)  -->
<svg version="1.1" id="Layer_1" xmlns="http://www.w3.org/2000/svg" xmlns:xlink="http://www.w3.org/1999/xlink" x="0px" y="0px"
	 viewBox="0 0 512 512" style="enable-background:new 0 0 512 512;" width="512px" height="512px" xml:space="preserve">
<path style="fill:#F0CE49;" d="M88.276,0C35.31,0,0,45.903,0,96.221c0,30.014,7.945,46.786,21.186,75.034
	c26.483,58.262,67.09,120.938,67.09,120.938s40.607-62.676,67.09-120.938c13.241-29.131,21.186-45.021,21.186-75.034
	C176.552,45.903,141.241,0,88.276,0"/>
<path style="fill:#BF9A26;" d="M132.414,88.276c0-24.717-19.421-44.138-44.138-44.138S44.138,63.559,44.138,88.276
	s19.421,44.138,44.138,44.138S132.414,112.993,132.414,88.276"/>
<path style="fill:#43B05B;" d="M423.724,176.552c-52.966,0-88.276,45.903-88.276,96.221c0,30.014,7.945,46.786,21.186,75.035
	c26.483,58.262,67.09,120.938,67.09,120.938s40.607-62.676,67.09-120.938C504.055,318.676,512,302.786,512,272.772
	C512,222.455,476.69,176.552,423.724,176.552"/>
<path style="fill:#248436;" d="M467.862,264.828c0-24.717-19.421-44.138-44.138-44.138c-24.717,0-44.138,19.421-44.138,44.138
	c0,24.717,19.421,44.138,44.138,44.138C448.441,308.966,467.862,289.545,467.862,264.828"/>
<g>
	<path style="fill:#48A0DC;" d="M423.724,512h-8.828c-5.297,0-8.828-3.531-8.828-8.828s3.531-8.828,8.828-8.828h8.828
		c5.297,0,8.828,3.531,8.828,8.828S429.021,512,423.724,512"/>
	<path style="fill:#48A0DC;" d="M330.152,512h-16.772c-5.297,0-8.828-3.531-8.828-8.828s3.531-8.828,8.828-8.828h16.772
		c5.297,0,8.828,3.531,8.828,8.828S335.448,512,330.152,512 M381.352,512h-16.772c-5.297,0-8.828-3.531-8.828-8.828
		s3.531-8.828,8.828-8.828h16.772c5.297,0,8.828,3.531,8.828,8.828S385.766,512,381.352,512"/>
	<path style="fill:#48A0DC;" d="M148.303,335.448h-16.772c-5.297,0-8.828-3.531-8.828-8.828s3.531-8.828,8.828-8.828h16.772
		c5.297,0,8.828,3.531,8.828,8.828S152.717,335.448,148.303,335.448 M198.621,335.448h-16.772c-5.297,0-8.828-3.531-8.828-8.828
		s3.531-8.828,8.828-8.828h16.772c5.297,0,8.828,3.531,8.828,8.828S203.917,335.448,198.621,335.448 M240.993,357.517
		c-2.648,0-6.179-1.766-7.945-4.414c-2.648-3.531-5.297-7.062-8.828-10.593c-3.531-2.648-4.414-8.828-1.766-12.359
		s8.828-4.414,12.359-1.766c5.297,4.414,9.71,9.71,13.241,15.007c2.648,4.414,0.883,9.71-3.531,12.359
		C244.524,357.517,242.759,357.517,240.993,357.517 M238.345,405.186c-1.766,0-3.531-0.883-5.297-1.766
		c-3.531-2.648-4.414-8.828-1.766-12.359c2.648-3.531,4.414-7.945,5.297-12.359s6.179-7.945,10.593-6.179
		c4.414,0.883,7.945,6.179,6.179,10.593c-1.766,6.179-4.414,12.359-8.828,18.538C244.524,404.303,240.993,405.186,238.345,405.186
		 M109.462,423.724H92.69c-5.297,0-8.828-3.531-8.828-8.828s3.531-8.828,8.828-8.828h16.772c5.297,0,8.828,3.531,8.828,8.828
		S114.759,423.724,109.462,423.724 M159.779,423.724h-16.772c-5.297,0-8.828-3.531-8.828-8.828s3.531-8.828,8.828-8.828h16.772
		c5.297,0,8.828,3.531,8.828,8.828S165.076,423.724,159.779,423.724 M203.034,423.724h-8.828c-5.297,0-8.828-3.531-8.828-8.828
		s3.531-8.828,8.828-8.828h8.828c1.766,0,4.414,0,6.179-0.883c5.297-0.883,9.71,2.648,10.593,7.062
		c0.883,4.414-2.648,9.71-7.062,10.593C209.214,423.724,205.683,423.724,203.034,423.724 M42.372,425.49
		c-3.531,0-7.945-2.648-8.828-7.062c-0.883-4.414,1.766-9.71,6.179-10.593c4.414-0.883,8.828-1.766,13.241-1.766h6.179
		c5.297,0,8.828,3.531,8.828,8.828s-3.531,8.828-8.828,8.828h-6.179c-2.648,0-6.179,0-8.828,0.883
		C43.255,424.607,42.372,425.49,42.372,425.49 M9.71,459.917c-0.883,0-0.883,0-1.766,0c-4.414-0.883-7.945-5.297-7.062-9.71
		c0.883-7.062,3.531-13.241,7.062-18.538c2.648-4.414,7.945-5.297,12.359-2.648c4.414,2.648,5.297,7.945,2.648,12.359
		c-2.648,3.531-4.414,7.945-4.414,12.359C17.655,457.269,14.124,459.917,9.71,459.917 M28.248,504.055
		c-1.766,0-3.531-0.883-5.297-1.766c-5.297-3.531-10.593-7.945-14.124-14.124c-2.648-4.414-1.766-9.71,2.648-12.359
		s9.71-1.766,12.359,2.648s5.297,7.062,8.828,9.71c4.414,2.648,5.297,7.945,2.648,12.359
		C33.545,503.172,30.897,504.055,28.248,504.055 M76.8,512H60.028c-5.297,0-8.828-3.531-8.828-8.828s3.531-8.828,8.828-8.828H76.8
		c5.297,0,8.828,3.531,8.828,8.828S82.097,512,76.8,512 M128,512h-16.772c-5.297,0-8.828-3.531-8.828-8.828s3.531-8.828,8.828-8.828
		H128c5.297,0,8.828,3.531,8.828,8.828S132.414,512,128,512 M178.317,512h-16.772c-5.297,0-8.828-3.531-8.828-8.828
		s3.531-8.828,8.828-8.828h16.772c5.297,0,8.828,3.531,8.828,8.828S183.614,512,178.317,512 M229.517,512h-17.655
		c-5.297,0-8.828-3.531-8.828-8.828s3.531-8.828,8.828-8.828h17.655c5.297,0,8.828,3.531,8.828,8.828S233.931,512,229.517,512
		 M279.835,512h-16.772c-5.297,0-8.828-3.531-8.828-8.828s3.531-8.828,8.828-8.828h16.772c5.297,0,8.828,3.531,8.828,8.828
		S285.131,512,279.835,512"/>
	<path style="fill:#48A0DC;" d="M97.103,335.448h-8.828c-5.297,0-8.828-3.531-8.828-8.828s3.531-8.828,8.828-8.828h8.828
		c5.297,0,8.828,3.531,8.828,8.828S102.4,335.448,97.103,335.448"/>
</g>
<g>
</g>
<g>
</g>
<g>
</g>
<g>
</g>
<g>
</g>
<g>
</g>
<g>
</g>
<g>
</g>
<g>
</g>
<g>
</g>
<g>
</g>
<g>
</g>
<g>
</g>
<g>
</g>
<g>
</g>
</svg>
